<svg width="450" height="450" viewBox="0 0 450 450" fill="none" xmlns="http://www.w3.org/2000/svg">
<path d="M225 75C195.333 75 166.332 83.7973 141.665 100.28C116.997 116.762 97.7713 140.189 86.4181 167.597C75.065 195.006 72.0945 225.166 77.8823 254.263C83.6701 283.361 97.9562 310.088 118.934 331.066C139.912 352.044 166.639 366.33 195.736 372.118C224.834 377.906 254.994 374.935 282.403 363.582C309.811 352.229 333.238 333.003 349.72 308.335C366.203 283.668 375 254.667 375 225C374.956 185.231 359.139 147.103 331.018 118.982C302.897 90.8612 264.769 75.0437 225 75V75ZM225 345C201.266 345 178.066 337.962 158.332 324.776C138.598 311.591 123.217 292.849 114.135 270.922C105.052 248.995 102.676 224.867 107.306 201.589C111.936 178.311 123.365 156.929 140.147 140.147C156.93 123.365 178.311 111.936 201.589 107.306C224.867 102.676 248.995 105.052 270.922 114.134C292.849 123.217 311.591 138.598 324.776 158.332C337.962 178.065 345 201.266 345 225C344.96 256.814 332.305 287.313 309.809 309.809C287.313 332.305 256.814 344.96 225 345ZM225 217.5C221.022 217.5 217.206 219.08 214.393 221.893C211.58 224.706 210 228.522 210 232.5V277.5C210 281.478 211.58 285.294 214.393 288.107C217.206 290.92 221.022 292.5 225 292.5C228.978 292.5 232.794 290.92 235.607 288.107C238.42 285.294 240 281.478 240 277.5V232.5C240 228.522 238.42 224.706 235.607 221.893C232.794 219.08 228.978 217.5 225 217.5ZM225 157.5C221.292 157.5 217.667 158.6 214.583 160.66C211.5 162.72 209.096 165.649 207.677 169.075C206.258 172.501 205.887 176.271 206.61 179.908C207.334 183.545 209.12 186.886 211.742 189.508C214.364 192.13 217.705 193.916 221.342 194.64C224.979 195.363 228.749 194.992 232.175 193.573C235.601 192.154 238.53 189.75 240.59 186.667C242.65 183.583 243.75 179.958 243.75 176.25C243.75 171.277 241.775 166.508 238.258 162.992C234.742 159.475 229.973 157.5 225 157.5V157.5Z" fill="#D4F7FC"/>
</svg>
